<mxfile host="app.diagrams.net" agent="Mozilla/5.0 (X11; Linux x86_64) AppleWebKit/537.36 (KHTML, like Gecko) Chrome/138.0.0.0 Safari/537.36" version="28.0.7" pages="2">
  <diagram name="Características técnicas" id="-OKv6Dg-XPo_JriZn3pr">
    <mxGraphModel dx="1461" dy="736" grid="1" gridSize="10" guides="1" tooltips="1" connect="1" arrows="1" fold="1" page="1" pageScale="1" pageWidth="827" pageHeight="1169" math="0" shadow="0">
      <root>
        <mxCell id="0" />
        <mxCell id="1" parent="0" />
        <mxCell id="NoPwBCkwxNXgUq8uyz4z-11" value="" style="rounded=0;whiteSpace=wrap;html=1;dashed=1;" parent="1" vertex="1">
          <mxGeometry x="900" y="590" width="180" height="90" as="geometry" />
        </mxCell>
        <mxCell id="NoPwBCkwxNXgUq8uyz4z-2" value="Conectividad con influxDB" style="rounded=0;whiteSpace=wrap;html=1;fontFamily=Poppins;fontSource=https%3A%2F%2Ffonts.googleapis.com%2Fcss%3Ffamily%3DPoppins;fontStyle=1;fillColor=#60a917;fontColor=#ffffff;strokeColor=#2D7600;" parent="1" vertex="1">
          <mxGeometry x="20" y="520" width="180" height="30" as="geometry" />
        </mxCell>
        <mxCell id="NoPwBCkwxNXgUq8uyz4z-3" value="&lt;span data-olk-copy-source=&quot;MessageBody&quot;&gt;API REST&lt;/span&gt;" style="rounded=0;whiteSpace=wrap;html=1;fontFamily=Poppins;fontSource=https%3A%2F%2Ffonts.googleapis.com%2Fcss%3Ffamily%3DPoppins;fontSize=12;fontStyle=1;fillColor=#60a917;fontColor=#ffffff;strokeColor=#2D7600;" parent="1" vertex="1">
          <mxGeometry x="900" y="520" width="180" height="30" as="geometry" />
        </mxCell>
        <mxCell id="NoPwBCkwxNXgUq8uyz4z-4" value="&lt;span data-olk-copy-source=&quot;MessageBody&quot;&gt;Utilización de Docker&lt;/span&gt;" style="rounded=0;whiteSpace=wrap;html=1;fontFamily=Poppins;fontSource=https%3A%2F%2Ffonts.googleapis.com%2Fcss%3Ffamily%3DPoppins;fontStyle=1;fillColor=#60a917;fontColor=#ffffff;strokeColor=#2D7600;" parent="1" vertex="1">
          <mxGeometry x="240" y="520" width="180" height="30" as="geometry" />
        </mxCell>
        <mxCell id="NoPwBCkwxNXgUq8uyz4z-7" value="&lt;span data-olk-copy-source=&quot;MessageBody&quot;&gt;Protección de la API&lt;/span&gt;" style="rounded=0;whiteSpace=wrap;html=1;fontFamily=Poppins;fontSource=https%3A%2F%2Ffonts.googleapis.com%2Fcss%3Ffamily%3DPoppins;fontStyle=1;fillColor=#60a917;fontColor=#ffffff;strokeColor=#2D7600;" parent="1" vertex="1">
          <mxGeometry x="1120" y="520" width="180" height="30" as="geometry" />
        </mxCell>
        <mxCell id="NoPwBCkwxNXgUq8uyz4z-8" value="&lt;span data-olk-copy-source=&quot;MessageBody&quot;&gt;Seguridad de conexiones&lt;/span&gt;" style="rounded=0;whiteSpace=wrap;html=1;fontFamily=Poppins;fontSource=https%3A%2F%2Ffonts.googleapis.com%2Fcss%3Ffamily%3DPoppins;fontSize=12;fontStyle=1;fillColor=#60a917;fontColor=#ffffff;strokeColor=#2D7600;" parent="1" vertex="1">
          <mxGeometry x="460" y="520" width="180" height="30" as="geometry" />
        </mxCell>
        <mxCell id="NoPwBCkwxNXgUq8uyz4z-9" value="Método GET" style="rounded=1;whiteSpace=wrap;html=1;fontFamily=Poppins;fontSource=https%3A%2F%2Ffonts.googleapis.com%2Fcss%3Ffamily%3DPoppins;fillColor=#d5e8d4;strokeColor=#82b366;" parent="1" vertex="1">
          <mxGeometry x="910" y="600" width="160" height="30" as="geometry" />
        </mxCell>
        <mxCell id="NoPwBCkwxNXgUq8uyz4z-12" value="Método POST" style="rounded=1;whiteSpace=wrap;html=1;fontFamily=Poppins;fontSource=https%3A%2F%2Ffonts.googleapis.com%2Fcss%3Ffamily%3DPoppins;fillColor=#d5e8d4;strokeColor=#82b366;" parent="1" vertex="1">
          <mxGeometry x="910" y="640" width="160" height="30" as="geometry" />
        </mxCell>
        <mxCell id="NoPwBCkwxNXgUq8uyz4z-13" value="" style="endArrow=classic;html=1;rounded=0;exitX=0.5;exitY=1;exitDx=0;exitDy=0;entryX=0.5;entryY=0;entryDx=0;entryDy=0;" parent="1" source="NoPwBCkwxNXgUq8uyz4z-3" target="NoPwBCkwxNXgUq8uyz4z-11" edge="1">
          <mxGeometry width="50" height="50" relative="1" as="geometry">
            <mxPoint x="1120" y="690" as="sourcePoint" />
            <mxPoint x="1170" y="640" as="targetPoint" />
          </mxGeometry>
        </mxCell>
        <mxCell id="NoPwBCkwxNXgUq8uyz4z-14" value="" style="rounded=0;whiteSpace=wrap;html=1;dashed=1;" parent="1" vertex="1">
          <mxGeometry x="1120" y="590" width="180" height="170" as="geometry" />
        </mxCell>
        <mxCell id="NoPwBCkwxNXgUq8uyz4z-15" value="&lt;span style=&quot;&quot; data-olk-copy-source=&quot;MessageBody&quot;&gt;Autenticación&amp;nbsp;&lt;/span&gt;&lt;span style=&quot;margin-top: 1em; margin-bottom: 1em;&quot; data-olk-copy-source=&quot;MessageBody&quot;&gt;JWT&lt;/span&gt;" style="rounded=1;whiteSpace=wrap;html=1;fontFamily=Poppins;fontSource=https%3A%2F%2Ffonts.googleapis.com%2Fcss%3Ffamily%3DPoppins;fillColor=#e3c800;fontColor=#000000;strokeColor=#B09500;" parent="1" vertex="1">
          <mxGeometry x="1130" y="600" width="160" height="30" as="geometry" />
        </mxCell>
        <mxCell id="NoPwBCkwxNXgUq8uyz4z-16" value="Rate limiting" style="rounded=1;whiteSpace=wrap;html=1;fontFamily=Poppins;fontSource=https%3A%2F%2Ffonts.googleapis.com%2Fcss%3Ffamily%3DPoppins;fillColor=#d5e8d4;strokeColor=#82b366;" parent="1" vertex="1">
          <mxGeometry x="1130" y="640" width="160" height="30" as="geometry" />
        </mxCell>
        <mxCell id="NoPwBCkwxNXgUq8uyz4z-17" value="CORS" style="rounded=1;whiteSpace=wrap;html=1;fontFamily=Poppins;fontSource=https%3A%2F%2Ffonts.googleapis.com%2Fcss%3Ffamily%3DPoppins;fillColor=#d5e8d4;strokeColor=#82b366;" parent="1" vertex="1">
          <mxGeometry x="1130" y="680" width="160" height="30" as="geometry" />
        </mxCell>
        <mxCell id="NoPwBCkwxNXgUq8uyz4z-18" value="" style="endArrow=classic;html=1;rounded=0;entryX=0.5;entryY=0;entryDx=0;entryDy=0;exitX=0.5;exitY=1;exitDx=0;exitDy=0;" parent="1" source="NoPwBCkwxNXgUq8uyz4z-7" target="NoPwBCkwxNXgUq8uyz4z-14" edge="1">
          <mxGeometry width="50" height="50" relative="1" as="geometry">
            <mxPoint x="1100" y="650" as="sourcePoint" />
            <mxPoint x="1150" y="600" as="targetPoint" />
          </mxGeometry>
        </mxCell>
        <mxCell id="NoPwBCkwxNXgUq8uyz4z-20" value="" style="rounded=0;whiteSpace=wrap;html=1;dashed=1;" parent="1" vertex="1">
          <mxGeometry x="460" y="590" width="180" height="50" as="geometry" />
        </mxCell>
        <mxCell id="NoPwBCkwxNXgUq8uyz4z-21" value="&lt;span style=&quot;margin-top: 1em; margin-bottom: 1em;&quot; data-olk-copy-source=&quot;MessageBody&quot;&gt;HTTPS&lt;/span&gt;" style="rounded=1;whiteSpace=wrap;html=1;fontFamily=Poppins;fontSource=https%3A%2F%2Ffonts.googleapis.com%2Fcss%3Ffamily%3DPoppins;fillColor=#d5e8d4;strokeColor=#82b366;" parent="1" vertex="1">
          <mxGeometry x="470" y="600" width="160" height="30" as="geometry" />
        </mxCell>
        <mxCell id="NoPwBCkwxNXgUq8uyz4z-23" value="" style="endArrow=classic;html=1;rounded=0;entryX=0.5;entryY=0;entryDx=0;entryDy=0;exitX=0.5;exitY=1;exitDx=0;exitDy=0;" parent="1" edge="1">
          <mxGeometry width="50" height="50" relative="1" as="geometry">
            <mxPoint x="550" y="550" as="sourcePoint" />
            <mxPoint x="550" y="590" as="targetPoint" />
          </mxGeometry>
        </mxCell>
        <mxCell id="NoPwBCkwxNXgUq8uyz4z-24" value="" style="rounded=0;whiteSpace=wrap;html=1;dashed=1;" parent="1" vertex="1">
          <mxGeometry x="20" y="584" width="180" height="146" as="geometry" />
        </mxCell>
        <mxCell id="NoPwBCkwxNXgUq8uyz4z-25" value="Uso de&amp;nbsp;&lt;span data-olk-copy-source=&quot;MessageBody&quot;&gt;cliente oficial (influxdb-client)&lt;/span&gt;" style="rounded=1;whiteSpace=wrap;html=1;fontFamily=Poppins;fontSource=https%3A%2F%2Ffonts.googleapis.com%2Fcss%3Ffamily%3DPoppins;fillColor=#d5e8d4;strokeColor=#82b366;" parent="1" vertex="1">
          <mxGeometry x="30" y="594" width="160" height="36" as="geometry" />
        </mxCell>
        <mxCell id="NoPwBCkwxNXgUq8uyz4z-26" value="&lt;span style=&quot;margin-top: 1em; margin-bottom: 1em;&quot; data-olk-copy-source=&quot;MessageBody&quot;&gt;Consultas optimizadas en flux&lt;/span&gt;" style="rounded=1;whiteSpace=wrap;html=1;fontFamily=Poppins;fontSource=https%3A%2F%2Ffonts.googleapis.com%2Fcss%3Ffamily%3DPoppins;fillColor=#d5e8d4;strokeColor=#82b366;" parent="1" vertex="1">
          <mxGeometry x="30" y="640" width="160" height="36" as="geometry" />
        </mxCell>
        <mxCell id="NoPwBCkwxNXgUq8uyz4z-27" value="&lt;span style=&quot;margin-top: 1em; margin-bottom: 1em;&quot; data-olk-copy-source=&quot;MessageBody&quot;&gt;Gestión eficiente (time range)&lt;/span&gt;" style="rounded=1;whiteSpace=wrap;html=1;fontFamily=Poppins;fontSource=https%3A%2F%2Ffonts.googleapis.com%2Fcss%3Ffamily%3DPoppins;fillColor=#d5e8d4;strokeColor=#82b366;" parent="1" vertex="1">
          <mxGeometry x="30" y="685" width="160" height="36" as="geometry" />
        </mxCell>
        <mxCell id="NoPwBCkwxNXgUq8uyz4z-29" value="" style="endArrow=classic;html=1;rounded=0;exitX=0.5;exitY=1;exitDx=0;exitDy=0;entryX=0.5;entryY=0;entryDx=0;entryDy=0;" parent="1" source="NoPwBCkwxNXgUq8uyz4z-2" target="NoPwBCkwxNXgUq8uyz4z-24" edge="1">
          <mxGeometry width="50" height="50" relative="1" as="geometry">
            <mxPoint x="330" y="826" as="sourcePoint" />
            <mxPoint x="380" y="776" as="targetPoint" />
          </mxGeometry>
        </mxCell>
        <mxCell id="NoPwBCkwxNXgUq8uyz4z-30" value="Sensores &quot;Destellos&quot;" style="rounded=1;whiteSpace=wrap;html=1;fontSize=20;fontStyle=1;fillColor=#647687;fontColor=#ffffff;strokeColor=#314354;" parent="1" vertex="1">
          <mxGeometry x="535" y="361" width="250" height="40" as="geometry" />
        </mxCell>
        <mxCell id="NoPwBCkwxNXgUq8uyz4z-31" value="&lt;span data-olk-copy-source=&quot;MessageBody&quot;&gt;Web Socket&lt;/span&gt;" style="rounded=0;whiteSpace=wrap;html=1;fontFamily=Poppins;fontSource=https%3A%2F%2Ffonts.googleapis.com%2Fcss%3Ffamily%3DPoppins;fontSize=12;fontStyle=1;fillColor=#e51400;fontColor=#ffffff;strokeColor=#B20000;" parent="1" vertex="1">
          <mxGeometry x="680" y="521" width="180" height="30" as="geometry" />
        </mxCell>
        <mxCell id="NoPwBCkwxNXgUq8uyz4z-32" value="" style="rounded=0;whiteSpace=wrap;html=1;dashed=1;" parent="1" vertex="1">
          <mxGeometry x="680" y="591" width="180" height="60" as="geometry" />
        </mxCell>
        <mxCell id="NoPwBCkwxNXgUq8uyz4z-33" value="Información en tiempo real" style="rounded=1;whiteSpace=wrap;html=1;fontFamily=Poppins;fontSource=https%3A%2F%2Ffonts.googleapis.com%2Fcss%3Ffamily%3DPoppins;fillColor=#f8cecc;strokeColor=#b85450;" parent="1" vertex="1">
          <mxGeometry x="690" y="601" width="160" height="40" as="geometry" />
        </mxCell>
        <mxCell id="NoPwBCkwxNXgUq8uyz4z-36" value="" style="endArrow=classic;html=1;rounded=0;entryX=0.5;entryY=0;entryDx=0;entryDy=0;exitX=0.5;exitY=1;exitDx=0;exitDy=0;" parent="1" source="NoPwBCkwxNXgUq8uyz4z-31" target="NoPwBCkwxNXgUq8uyz4z-32" edge="1">
          <mxGeometry width="50" height="50" relative="1" as="geometry">
            <mxPoint x="470" y="611" as="sourcePoint" />
            <mxPoint x="520" y="561" as="targetPoint" />
          </mxGeometry>
        </mxCell>
        <mxCell id="NoPwBCkwxNXgUq8uyz4z-37" value="" style="endArrow=classic;html=1;rounded=0;exitX=0.5;exitY=1;exitDx=0;exitDy=0;entryX=0.5;entryY=0;entryDx=0;entryDy=0;edgeStyle=orthogonalEdgeStyle;" parent="1" source="NoPwBCkwxNXgUq8uyz4z-30" target="NoPwBCkwxNXgUq8uyz4z-2" edge="1">
          <mxGeometry width="50" height="50" relative="1" as="geometry">
            <mxPoint x="560" y="610" as="sourcePoint" />
            <mxPoint x="610" y="560" as="targetPoint" />
          </mxGeometry>
        </mxCell>
        <mxCell id="NoPwBCkwxNXgUq8uyz4z-38" value="" style="endArrow=classic;html=1;rounded=0;exitX=0.5;exitY=1;exitDx=0;exitDy=0;entryX=0.5;entryY=0;entryDx=0;entryDy=0;edgeStyle=orthogonalEdgeStyle;" parent="1" source="NoPwBCkwxNXgUq8uyz4z-30" target="NoPwBCkwxNXgUq8uyz4z-4" edge="1">
          <mxGeometry width="50" height="50" relative="1" as="geometry">
            <mxPoint x="560" y="610" as="sourcePoint" />
            <mxPoint x="610" y="560" as="targetPoint" />
          </mxGeometry>
        </mxCell>
        <mxCell id="NoPwBCkwxNXgUq8uyz4z-39" value="" style="endArrow=classic;html=1;rounded=0;exitX=0.5;exitY=1;exitDx=0;exitDy=0;entryX=0.5;entryY=0;entryDx=0;entryDy=0;edgeStyle=orthogonalEdgeStyle;" parent="1" source="NoPwBCkwxNXgUq8uyz4z-30" target="NoPwBCkwxNXgUq8uyz4z-8" edge="1">
          <mxGeometry width="50" height="50" relative="1" as="geometry">
            <mxPoint x="560" y="610" as="sourcePoint" />
            <mxPoint x="610" y="560" as="targetPoint" />
          </mxGeometry>
        </mxCell>
        <mxCell id="NoPwBCkwxNXgUq8uyz4z-40" value="" style="endArrow=classic;html=1;rounded=0;exitX=0.5;exitY=1;exitDx=0;exitDy=0;edgeStyle=orthogonalEdgeStyle;" parent="1" source="NoPwBCkwxNXgUq8uyz4z-30" target="NoPwBCkwxNXgUq8uyz4z-31" edge="1">
          <mxGeometry width="50" height="50" relative="1" as="geometry">
            <mxPoint x="560" y="610" as="sourcePoint" />
            <mxPoint x="610" y="560" as="targetPoint" />
          </mxGeometry>
        </mxCell>
        <mxCell id="NoPwBCkwxNXgUq8uyz4z-41" value="" style="endArrow=classic;html=1;rounded=0;exitX=0.5;exitY=1;exitDx=0;exitDy=0;entryX=0.5;entryY=0;entryDx=0;entryDy=0;edgeStyle=orthogonalEdgeStyle;" parent="1" source="NoPwBCkwxNXgUq8uyz4z-30" target="NoPwBCkwxNXgUq8uyz4z-3" edge="1">
          <mxGeometry width="50" height="50" relative="1" as="geometry">
            <mxPoint x="560" y="610" as="sourcePoint" />
            <mxPoint x="610" y="560" as="targetPoint" />
          </mxGeometry>
        </mxCell>
        <mxCell id="NoPwBCkwxNXgUq8uyz4z-42" value="" style="endArrow=classic;html=1;rounded=0;exitX=0.5;exitY=1;exitDx=0;exitDy=0;entryX=0.5;entryY=0;entryDx=0;entryDy=0;edgeStyle=orthogonalEdgeStyle;" parent="1" source="NoPwBCkwxNXgUq8uyz4z-30" target="NoPwBCkwxNXgUq8uyz4z-7" edge="1">
          <mxGeometry width="50" height="50" relative="1" as="geometry">
            <mxPoint x="1010" y="610" as="sourcePoint" />
            <mxPoint x="1060" y="560" as="targetPoint" />
          </mxGeometry>
        </mxCell>
        <mxCell id="NoPwBCkwxNXgUq8uyz4z-46" value="&lt;span style=&quot;margin-top: 1em; margin-bottom: 1em;&quot; data-olk-copy-source=&quot;MessageBody&quot;&gt;APK&lt;/span&gt;" style="rounded=1;whiteSpace=wrap;html=1;fontFamily=Poppins;fontSource=https%3A%2F%2Ffonts.googleapis.com%2Fcss%3Ffamily%3DPoppins;fillColor=#d5e8d4;strokeColor=#82b366;" parent="1" vertex="1">
          <mxGeometry x="1130" y="720" width="160" height="30" as="geometry" />
        </mxCell>
        <mxCell id="NoPwBCkwxNXgUq8uyz4z-47" value="" style="rounded=0;whiteSpace=wrap;html=1;dashed=1;" parent="1" vertex="1">
          <mxGeometry x="240" y="585" width="180" height="60" as="geometry" />
        </mxCell>
        <mxCell id="NoPwBCkwxNXgUq8uyz4z-48" value="&lt;span style=&quot;margin-top: 1em; margin-bottom: 1em;&quot; data-olk-copy-source=&quot;MessageBody&quot;&gt;Despliegue fácil&lt;/span&gt;" style="rounded=1;whiteSpace=wrap;html=1;fontFamily=Poppins;fontSource=https%3A%2F%2Ffonts.googleapis.com%2Fcss%3Ffamily%3DPoppins;fillColor=#d5e8d4;strokeColor=#82b366;" parent="1" vertex="1">
          <mxGeometry x="250" y="595" width="160" height="40" as="geometry" />
        </mxCell>
        <mxCell id="NoPwBCkwxNXgUq8uyz4z-49" value="" style="endArrow=classic;html=1;rounded=0;exitX=0.5;exitY=1;exitDx=0;exitDy=0;entryX=0.5;entryY=0;entryDx=0;entryDy=0;" parent="1" source="NoPwBCkwxNXgUq8uyz4z-4" target="NoPwBCkwxNXgUq8uyz4z-47" edge="1">
          <mxGeometry width="50" height="50" relative="1" as="geometry">
            <mxPoint x="480" y="610" as="sourcePoint" />
            <mxPoint x="530" y="560" as="targetPoint" />
          </mxGeometry>
        </mxCell>
        <mxCell id="Uqiy8y2vYC141JNodXEf-1" value="" style="rounded=0;whiteSpace=wrap;html=1;dashed=1;" vertex="1" parent="1">
          <mxGeometry x="900" y="710" width="180" height="140" as="geometry" />
        </mxCell>
        <mxCell id="Uqiy8y2vYC141JNodXEf-2" value="Endpoints -&amp;gt;&amp;nbsp;kebab-case" style="rounded=1;whiteSpace=wrap;html=1;fontFamily=Poppins;fontSource=https%3A%2F%2Ffonts.googleapis.com%2Fcss%3Ffamily%3DPoppins;fillColor=#d5e8d4;strokeColor=#82b366;" vertex="1" parent="1">
          <mxGeometry x="910" y="720" width="160" height="30" as="geometry" />
        </mxCell>
        <mxCell id="Uqiy8y2vYC141JNodXEf-3" value="Parámetros -&amp;gt;&amp;nbsp;camelCase" style="rounded=1;whiteSpace=wrap;html=1;fontFamily=Poppins;fontSource=https%3A%2F%2Ffonts.googleapis.com%2Fcss%3Ffamily%3DPoppins;fillColor=#d5e8d4;strokeColor=#82b366;" vertex="1" parent="1">
          <mxGeometry x="910" y="760" width="160" height="40" as="geometry" />
        </mxCell>
        <mxCell id="pcrnkEzc4zyTzDlHMXvx-1" value="Fechas -&amp;gt;&amp;nbsp;&lt;span style=&quot;margin-top: 1em; margin-bottom: 1em;&quot; data-olk-copy-source=&quot;MessageBody&quot;&gt;RFC3339&lt;/span&gt;" style="rounded=1;whiteSpace=wrap;html=1;fontFamily=Poppins;fontSource=https%3A%2F%2Ffonts.googleapis.com%2Fcss%3Ffamily%3DPoppins;fillColor=#d5e8d4;strokeColor=#82b366;" vertex="1" parent="1">
          <mxGeometry x="910" y="810" width="160" height="30" as="geometry" />
        </mxCell>
        <mxCell id="pcrnkEzc4zyTzDlHMXvx-2" value="" style="endArrow=classic;html=1;rounded=0;exitX=0.5;exitY=1;exitDx=0;exitDy=0;entryX=0.5;entryY=0;entryDx=0;entryDy=0;" edge="1" parent="1" source="NoPwBCkwxNXgUq8uyz4z-11" target="Uqiy8y2vYC141JNodXEf-1">
          <mxGeometry width="50" height="50" relative="1" as="geometry">
            <mxPoint x="720" y="610" as="sourcePoint" />
            <mxPoint x="770" y="560" as="targetPoint" />
          </mxGeometry>
        </mxCell>
      </root>
    </mxGraphModel>
  </diagram>
  <diagram name="Estructura de la API" id="vTKQAWQK4WbaxQedmbRO">
    <mxGraphModel dx="1242" dy="626" grid="1" gridSize="10" guides="1" tooltips="1" connect="1" arrows="1" fold="1" page="1" pageScale="1" pageWidth="827" pageHeight="1169" math="0" shadow="0">
      <root>
        <mxCell id="HFlcnK63qUpS999umlD5-0" />
        <mxCell id="HFlcnK63qUpS999umlD5-1" parent="HFlcnK63qUpS999umlD5-0" />
        <mxCell id="HFlcnK63qUpS999umlD5-2" value="" style="rounded=0;whiteSpace=wrap;html=1;dashed=1;" vertex="1" parent="HFlcnK63qUpS999umlD5-1">
          <mxGeometry x="435" y="630" width="180" height="90" as="geometry" />
        </mxCell>
        <mxCell id="HFlcnK63qUpS999umlD5-4" value="&lt;span data-olk-copy-source=&quot;MessageBody&quot;&gt;Método GET&lt;/span&gt;" style="rounded=0;whiteSpace=wrap;html=1;fontFamily=Poppins;fontSource=https%3A%2F%2Ffonts.googleapis.com%2Fcss%3Ffamily%3DPoppins;fontSize=12;fontStyle=1;fillColor=#60a917;fontColor=#ffffff;strokeColor=#2D7600;" vertex="1" parent="HFlcnK63qUpS999umlD5-1">
          <mxGeometry x="435" y="560" width="180" height="30" as="geometry" />
        </mxCell>
        <mxCell id="HFlcnK63qUpS999umlD5-6" value="&lt;span data-olk-copy-source=&quot;MessageBody&quot;&gt;Método POST&lt;/span&gt;" style="rounded=0;whiteSpace=wrap;html=1;fontFamily=Poppins;fontSource=https%3A%2F%2Ffonts.googleapis.com%2Fcss%3Ffamily%3DPoppins;fontStyle=1;fillColor=#60a917;fontColor=#ffffff;strokeColor=#2D7600;" vertex="1" parent="HFlcnK63qUpS999umlD5-1">
          <mxGeometry x="655" y="560" width="180" height="30" as="geometry" />
        </mxCell>
        <mxCell id="HFlcnK63qUpS999umlD5-8" value="/status" style="rounded=1;whiteSpace=wrap;html=1;fontFamily=Poppins;fontSource=https%3A%2F%2Ffonts.googleapis.com%2Fcss%3Ffamily%3DPoppins;fillColor=#d5e8d4;strokeColor=#82b366;" vertex="1" parent="HFlcnK63qUpS999umlD5-1">
          <mxGeometry x="445" y="640" width="160" height="30" as="geometry" />
        </mxCell>
        <mxCell id="HFlcnK63qUpS999umlD5-9" value="/consult-data" style="rounded=1;whiteSpace=wrap;html=1;fontFamily=Poppins;fontSource=https%3A%2F%2Ffonts.googleapis.com%2Fcss%3Ffamily%3DPoppins;fillColor=#d5e8d4;strokeColor=#82b366;" vertex="1" parent="HFlcnK63qUpS999umlD5-1">
          <mxGeometry x="445" y="680" width="160" height="30" as="geometry" />
        </mxCell>
        <mxCell id="HFlcnK63qUpS999umlD5-10" value="" style="endArrow=classic;html=1;rounded=0;exitX=0.5;exitY=1;exitDx=0;exitDy=0;entryX=0.5;entryY=0;entryDx=0;entryDy=0;" edge="1" parent="HFlcnK63qUpS999umlD5-1" source="HFlcnK63qUpS999umlD5-4" target="HFlcnK63qUpS999umlD5-2">
          <mxGeometry width="50" height="50" relative="1" as="geometry">
            <mxPoint x="655" y="730" as="sourcePoint" />
            <mxPoint x="705" y="680" as="targetPoint" />
          </mxGeometry>
        </mxCell>
        <mxCell id="HFlcnK63qUpS999umlD5-15" value="" style="endArrow=classic;html=1;rounded=0;entryX=0.5;entryY=0;entryDx=0;entryDy=0;exitX=0.5;exitY=1;exitDx=0;exitDy=0;" edge="1" parent="HFlcnK63qUpS999umlD5-1" source="HFlcnK63qUpS999umlD5-6">
          <mxGeometry width="50" height="50" relative="1" as="geometry">
            <mxPoint x="635" y="690" as="sourcePoint" />
            <mxPoint x="745" y="630" as="targetPoint" />
          </mxGeometry>
        </mxCell>
        <mxCell id="HFlcnK63qUpS999umlD5-24" value="Estructura del API" style="rounded=1;whiteSpace=wrap;html=1;fontSize=20;fontStyle=1;fillColor=#647687;fontColor=#ffffff;strokeColor=#314354;" vertex="1" parent="HFlcnK63qUpS999umlD5-1">
          <mxGeometry x="510" y="396" width="250" height="40" as="geometry" />
        </mxCell>
        <mxCell id="HFlcnK63qUpS999umlD5-33" value="" style="endArrow=classic;html=1;rounded=0;exitX=0.5;exitY=1;exitDx=0;exitDy=0;entryX=0.5;entryY=0;entryDx=0;entryDy=0;edgeStyle=orthogonalEdgeStyle;" edge="1" parent="HFlcnK63qUpS999umlD5-1" source="HFlcnK63qUpS999umlD5-24" target="HFlcnK63qUpS999umlD5-4">
          <mxGeometry width="50" height="50" relative="1" as="geometry">
            <mxPoint x="560" y="610" as="sourcePoint" />
            <mxPoint x="610" y="560" as="targetPoint" />
          </mxGeometry>
        </mxCell>
        <mxCell id="HFlcnK63qUpS999umlD5-34" value="" style="endArrow=classic;html=1;rounded=0;exitX=0.5;exitY=1;exitDx=0;exitDy=0;entryX=0.5;entryY=0;entryDx=0;entryDy=0;edgeStyle=orthogonalEdgeStyle;" edge="1" parent="HFlcnK63qUpS999umlD5-1" source="HFlcnK63qUpS999umlD5-24" target="HFlcnK63qUpS999umlD5-6">
          <mxGeometry width="50" height="50" relative="1" as="geometry">
            <mxPoint x="1010" y="610" as="sourcePoint" />
            <mxPoint x="1060" y="560" as="targetPoint" />
          </mxGeometry>
        </mxCell>
        <mxCell id="c2FLs8xWmO1Z8JCVP6V1-0" value="Dominios" style="rounded=0;whiteSpace=wrap;html=1;fontFamily=Poppins;fontSource=https%3A%2F%2Ffonts.googleapis.com%2Fcss%3Ffamily%3DPoppins;fontSize=12;fontStyle=1;fillColor=#60a917;fontColor=#ffffff;strokeColor=#2D7600;" vertex="1" parent="HFlcnK63qUpS999umlD5-1">
          <mxGeometry x="216" y="560" width="180" height="30" as="geometry" />
        </mxCell>
        <mxCell id="c2FLs8xWmO1Z8JCVP6V1-1" value="" style="endArrow=classic;html=1;rounded=0;entryX=0.5;entryY=0;entryDx=0;entryDy=0;edgeStyle=orthogonalEdgeStyle;exitX=0.5;exitY=1;exitDx=0;exitDy=0;" edge="1" parent="HFlcnK63qUpS999umlD5-1" source="HFlcnK63qUpS999umlD5-24" target="c2FLs8xWmO1Z8JCVP6V1-0">
          <mxGeometry width="50" height="50" relative="1" as="geometry">
            <mxPoint x="620" y="640" as="sourcePoint" />
            <mxPoint x="670" y="590" as="targetPoint" />
          </mxGeometry>
        </mxCell>
        <mxCell id="c2FLs8xWmO1Z8JCVP6V1-2" value="" style="rounded=0;whiteSpace=wrap;html=1;dashed=1;" vertex="1" parent="HFlcnK63qUpS999umlD5-1">
          <mxGeometry x="216" y="630" width="180" height="160" as="geometry" />
        </mxCell>
        <mxCell id="c2FLs8xWmO1Z8JCVP6V1-3" value="https://destellos.influx.&lt;div&gt;key-city.com&lt;/div&gt;" style="rounded=1;whiteSpace=wrap;html=1;fontFamily=Poppins;fontSource=https%3A%2F%2Ffonts.googleapis.com%2Fcss%3Ffamily%3DPoppins;fillColor=#d5e8d4;strokeColor=#82b366;" vertex="1" parent="HFlcnK63qUpS999umlD5-1">
          <mxGeometry x="226" y="640" width="160" height="40" as="geometry" />
        </mxCell>
        <mxCell id="c2FLs8xWmO1Z8JCVP6V1-4" value="https://destellos.api.&lt;div&gt;key-city.com&lt;/div&gt;" style="rounded=1;whiteSpace=wrap;html=1;fontFamily=Poppins;fontSource=https%3A%2F%2Ffonts.googleapis.com%2Fcss%3Ffamily%3DPoppins;fillColor=#d5e8d4;strokeColor=#82b366;" vertex="1" parent="HFlcnK63qUpS999umlD5-1">
          <mxGeometry x="226" y="691" width="160" height="40" as="geometry" />
        </mxCell>
        <mxCell id="c2FLs8xWmO1Z8JCVP6V1-5" value="" style="endArrow=classic;html=1;rounded=0;exitX=0.5;exitY=1;exitDx=0;exitDy=0;entryX=0.5;entryY=0;entryDx=0;entryDy=0;" edge="1" parent="HFlcnK63qUpS999umlD5-1" source="c2FLs8xWmO1Z8JCVP6V1-0" target="c2FLs8xWmO1Z8JCVP6V1-2">
          <mxGeometry width="50" height="50" relative="1" as="geometry">
            <mxPoint x="656" y="640" as="sourcePoint" />
            <mxPoint x="706" y="590" as="targetPoint" />
          </mxGeometry>
        </mxCell>
        <mxCell id="c2FLs8xWmO1Z8JCVP6V1-6" value="" style="rounded=0;whiteSpace=wrap;html=1;dashed=1;" vertex="1" parent="HFlcnK63qUpS999umlD5-1">
          <mxGeometry x="655" y="630" width="180" height="90" as="geometry" />
        </mxCell>
        <mxCell id="c2FLs8xWmO1Z8JCVP6V1-7" value="/save-data" style="rounded=1;whiteSpace=wrap;html=1;fontFamily=Poppins;fontSource=https%3A%2F%2Ffonts.googleapis.com%2Fcss%3Ffamily%3DPoppins;fillColor=#d5e8d4;strokeColor=#82b366;" vertex="1" parent="HFlcnK63qUpS999umlD5-1">
          <mxGeometry x="665" y="640" width="160" height="30" as="geometry" />
        </mxCell>
        <mxCell id="c2FLs8xWmO1Z8JCVP6V1-8" value="" style="rounded=1;whiteSpace=wrap;html=1;fontFamily=Poppins;fontSource=https%3A%2F%2Ffonts.googleapis.com%2Fcss%3Ffamily%3DPoppins;fillColor=#d5e8d4;strokeColor=#82b366;" vertex="1" parent="HFlcnK63qUpS999umlD5-1">
          <mxGeometry x="665" y="680" width="160" height="30" as="geometry" />
        </mxCell>
        <mxCell id="c2FLs8xWmO1Z8JCVP6V1-9" value="&lt;span data-olk-copy-source=&quot;MessageBody&quot;&gt;Swagger&lt;/span&gt;" style="rounded=0;whiteSpace=wrap;html=1;fontFamily=Poppins;fontSource=https%3A%2F%2Ffonts.googleapis.com%2Fcss%3Ffamily%3DPoppins;fontStyle=1;fillColor=#60a917;fontColor=#ffffff;strokeColor=#2D7600;" vertex="1" parent="HFlcnK63qUpS999umlD5-1">
          <mxGeometry x="872" y="560" width="180" height="30" as="geometry" />
        </mxCell>
        <mxCell id="c2FLs8xWmO1Z8JCVP6V1-10" value="" style="endArrow=classic;html=1;rounded=0;entryX=0.5;entryY=0;entryDx=0;entryDy=0;exitX=0.5;exitY=1;exitDx=0;exitDy=0;" edge="1" parent="HFlcnK63qUpS999umlD5-1" source="c2FLs8xWmO1Z8JCVP6V1-9">
          <mxGeometry width="50" height="50" relative="1" as="geometry">
            <mxPoint x="852" y="690" as="sourcePoint" />
            <mxPoint x="962" y="630" as="targetPoint" />
          </mxGeometry>
        </mxCell>
        <mxCell id="c2FLs8xWmO1Z8JCVP6V1-11" value="" style="rounded=0;whiteSpace=wrap;html=1;dashed=1;" vertex="1" parent="HFlcnK63qUpS999umlD5-1">
          <mxGeometry x="872" y="630" width="180" height="50" as="geometry" />
        </mxCell>
        <mxCell id="c2FLs8xWmO1Z8JCVP6V1-12" value="/api-docs" style="rounded=1;whiteSpace=wrap;html=1;fontFamily=Poppins;fontSource=https%3A%2F%2Ffonts.googleapis.com%2Fcss%3Ffamily%3DPoppins;fillColor=#d5e8d4;strokeColor=#82b366;" vertex="1" parent="HFlcnK63qUpS999umlD5-1">
          <mxGeometry x="882" y="640" width="160" height="30" as="geometry" />
        </mxCell>
        <mxCell id="c2FLs8xWmO1Z8JCVP6V1-14" value="" style="endArrow=classic;html=1;rounded=0;exitX=0.5;exitY=1;exitDx=0;exitDy=0;entryX=0.5;entryY=0;entryDx=0;entryDy=0;edgeStyle=orthogonalEdgeStyle;" edge="1" parent="HFlcnK63qUpS999umlD5-1" source="HFlcnK63qUpS999umlD5-24" target="c2FLs8xWmO1Z8JCVP6V1-9">
          <mxGeometry width="50" height="50" relative="1" as="geometry">
            <mxPoint x="620" y="640" as="sourcePoint" />
            <mxPoint x="670" y="590" as="targetPoint" />
          </mxGeometry>
        </mxCell>
        <mxCell id="c2FLs8xWmO1Z8JCVP6V1-15" value="https://destellos.broker.&lt;div&gt;key-city.com&lt;/div&gt;" style="rounded=1;whiteSpace=wrap;html=1;fontFamily=Poppins;fontSource=https%3A%2F%2Ffonts.googleapis.com%2Fcss%3Ffamily%3DPoppins;fillColor=#d5e8d4;strokeColor=#82b366;" vertex="1" parent="HFlcnK63qUpS999umlD5-1">
          <mxGeometry x="226" y="742" width="160" height="40" as="geometry" />
        </mxCell>
      </root>
    </mxGraphModel>
  </diagram>
</mxfile>
